<?xml version="1.0" encoding="utf-8"?>
<!-- Generator: Adobe Illustrator 27.7.0, SVG Export Plug-In . SVG Version: 6.00 Build 0)  -->
<svg version="1.1" xmlns="http://www.w3.org/2000/svg" xmlns:xlink="http://www.w3.org/1999/xlink" x="0px" y="0px"
	 viewBox="0 0 97.59 97.59" style="enable-background:new 0 0 97.59 97.59;" xml:space="preserve">
<style type="text/css">
	.st0{display:none;}
	.st1{display:inline;}
	.st2{display:inline;fill:#FFFFFF;stroke:#000000;stroke-width:4;stroke-miterlimit:10;}
	.st3{display:inline;fill:none;stroke:#000000;stroke-width:8;stroke-linecap:round;stroke-miterlimit:10;}
	.st4{display:inline;fill:none;stroke:#000000;stroke-width:8;stroke-miterlimit:10;}
	.st5{fill:none;stroke:#000000;stroke-width:8;stroke-linecap:round;stroke-miterlimit:10;}
	.st6{fill:none;stroke:#000000;stroke-width:8;stroke-miterlimit:10;}
	.st7{fill:#FFFFFF;stroke:#000000;stroke-width:4;stroke-miterlimit:10;}
</style>
<g id="Layer_2" class="st0">
	<g class="st1">
		<path d="M29.28-248.55h-12v1h12V-248.55L29.28-248.55z M5.28-248.55h-12v1h12V-248.55L5.28-248.55z M-18.72-248.55h-12v1h12
			V-248.55L-18.72-248.55z M-42.72-248.55h-12v1h12V-248.55L-42.72-248.55z M-66.72-248.55h-12v1h12V-248.55L-66.72-248.55z
			 M-90.72-248.55h-12v1h12V-248.55L-90.72-248.55z M-114.72-248.55h-11v1h11V-248.55L-114.72-248.55z M-124.72-235.55h-1v12h1
			V-235.55L-124.72-235.55z M-124.72-211.55h-1v12h1V-211.55L-124.72-211.55z M-124.72-187.55h-1v12h1V-187.55L-124.72-187.55z
			 M-124.72-163.55h-1v12h1V-163.55L-124.72-163.55z M-112.72-141.55h-12v1h12V-141.55L-112.72-141.55z M-88.72-141.55h-12v1h12
			V-141.55L-88.72-141.55z M-64.72-141.55h-12v1h12V-141.55L-64.72-141.55z M-40.72-141.55h-12v1h12V-141.55L-40.72-141.55z
			 M-16.72-141.55h-12v1h12V-141.55L-16.72-141.55z M7.28-141.55h-12v1h12V-141.55L7.28-141.55z M29.28-142.55h-1v1h-9v1h10V-142.55
			L29.28-142.55z M29.28-166.55h-1v12h1V-166.55L29.28-166.55z M29.28-190.55h-1v12h1V-190.55L29.28-190.55z M29.28-214.55h-1v12h1
			V-214.55L29.28-214.55z M29.28-238.55h-1v12h1V-238.55L29.28-238.55z"/>
	</g>
	<polygon class="st2" points="-102.22,-231.05 -1.31,-179.94 -36.7,-162.9 -10.49,-123.59 -32.76,-106.55 -60.29,-145.87 
		-90.43,-117.04 	"/>
</g>
<g id="Layer_3" class="st0">
	<line class="st3" x1="-143.9" y1="18.02" x2="-83.9" y2="18.02"/>
	<line class="st3" x1="-144.9" y1="78.02" x2="-144.9" y2="18.02"/>
	<line class="st4" x1="-144.9" y1="0.02" x2="-144.9" y2="36.02"/>
	<line class="st4" x1="-126.9" y1="18.02" x2="-162.9" y2="18.02"/>
	<polygon class="st2" points="-155.1,8.07 -188.44,-3.35 -178.26,-10.13 -188.04,-21.13 -181.9,-27.35 -171.71,-16.4 -163.66,-26.6 
			"/>
</g>
<g id="Layer_4">
	<g>
		<line class="st5" x1="19.29" y1="18.79" x2="79.29" y2="18.79"/>
		<line class="st5" x1="18.29" y1="78.79" x2="18.29" y2="18.79"/>
		<line class="st6" x1="40.29" y1="22.79" x2="40.29" y2="58.79"/>
		<line class="st6" x1="58.29" y1="40.79" x2="22.29" y2="40.79"/>
		<polygon class="st7" points="29.14,29.28 62.77,39.8 52.77,46.85 62.85,57.59 56.88,63.97 46.4,53.3 38.62,63.71 		"/>
	</g>
</g>
</svg>
